<svg width="56" height="56" viewBox="0 0 56 56" fill="none" xmlns="http://www.w3.org/2000/svg">
<path fill-rule="evenodd" clip-rule="evenodd" d="M28.0488 9.92181C20.2917 9.92181 13.9954 16.2181 13.9954 23.9761C13.9954 31.7341 20.2917 38.0304 28.0497 38.0304C35.8076 38.0304 42.1023 31.7324 42.1023 23.9761C42.1023 16.2198 35.806 9.92181 28.0488 9.92181ZM28.0488 11.5753C34.8941 11.5753 40.4497 17.1308 40.4497 23.9761C40.4497 30.8214 34.8941 36.377 28.0488 36.377C21.2036 36.377 15.6488 30.8197 15.6488 23.9761C15.6488 17.1325 21.2036 11.5753 28.0488 11.5753Z" fill="#A35D2E"/>
<path fill-rule="evenodd" clip-rule="evenodd" d="M20.9806 9.94495C23.172 8.83742 25.5936 8.26216 28.049 8.26587C36.7181 8.26587 43.7568 15.3038 43.7568 23.9736C43.7568 26.5141 43.1516 28.9158 42.0769 31.0413C41.9821 31.2367 41.968 31.4615 42.0376 31.6673C42.1071 31.873 42.2548 32.0432 42.4486 32.1411C42.6425 32.2389 42.8671 32.2566 43.0739 32.1904C43.2808 32.1242 43.4533 31.9793 43.5542 31.787C44.7775 29.3643 45.4131 26.6876 45.4094 23.9736C45.4094 14.3911 37.6308 6.61243 28.0482 6.61243C25.239 6.61243 22.5844 7.28125 20.2348 8.46759C20.0426 8.56856 19.8977 8.74106 19.8314 8.94789C19.7652 9.15473 19.7829 9.37931 19.8808 9.57319C19.9786 9.76707 20.1488 9.91472 20.3545 9.98426C20.5603 10.0538 20.7851 10.0397 20.9806 9.94495ZM35.1159 38.0023C32.9246 39.1094 30.5033 39.6844 28.0482 39.6805C19.3784 39.6805 12.3405 32.6426 12.3405 23.9728C12.3405 22.0407 12.6893 20.1864 13.3309 18.4767C13.4078 18.2714 13.4001 18.0439 13.3093 17.8443C13.2185 17.6447 13.0522 17.4893 12.8468 17.4123C12.6415 17.3354 12.414 17.3431 12.2144 17.4339C12.0148 17.5247 11.8594 17.691 11.7824 17.8964C11.0564 19.8399 10.6854 21.8981 10.687 23.9728C10.687 33.5562 18.4657 41.334 28.0482 41.334C30.8574 41.334 33.512 40.666 35.8616 39.4788C36.0498 39.3756 36.1905 39.2034 36.2541 38.9984C36.3177 38.7934 36.2991 38.5717 36.2024 38.3801C36.1056 38.1886 35.9382 38.0421 35.7355 37.9716C35.5328 37.9011 35.3106 37.9121 35.1159 38.0023ZM42.1033 37.0036V35.5486C42.1033 35.3293 42.1904 35.119 42.3455 34.964C42.5005 34.809 42.7108 34.7219 42.9301 34.7219H46.237C46.4562 34.7219 46.6665 34.809 46.8215 34.964C46.9766 35.119 47.0637 35.3293 47.0637 35.5486V37.0036L48.3005 36.2819C48.3947 36.2269 48.499 36.1911 48.6072 36.1765C48.7154 36.162 48.8254 36.169 48.9308 36.1973C49.0363 36.2255 49.1351 36.2743 49.2216 36.3409C49.3081 36.4075 49.3805 36.4905 49.4347 36.5853L51.0882 39.4788C51.1966 39.668 51.2258 39.8924 51.1694 40.103C51.113 40.3136 50.9757 40.4934 50.7872 40.6032L49.5306 41.3356L50.7872 42.069C50.9757 42.1787 51.113 42.3585 51.1694 42.5691C51.2258 42.7797 51.1966 43.0041 51.0882 43.1933L49.4347 46.0868C49.3805 46.1816 49.3081 46.2646 49.2216 46.3312C49.1351 46.3978 49.0363 46.4467 48.9308 46.4749C48.8254 46.5031 48.7154 46.5101 48.6072 46.4956C48.499 46.4811 48.3947 46.4453 48.3005 46.3902L47.0637 45.6677V47.1227C47.0637 47.342 46.9766 47.5523 46.8215 47.7073C46.6665 47.8623 46.4562 47.9494 46.237 47.9494H42.9301C42.7108 47.9494 42.5005 47.8623 42.3455 47.7073C42.1904 47.5523 42.1033 47.342 42.1033 47.1227V45.6677L40.8666 46.3902C40.7722 46.4452 40.6679 46.481 40.5597 46.4954C40.4515 46.5099 40.3415 46.5028 40.236 46.4745C40.1306 46.4462 40.0318 46.3973 39.9453 46.3306C39.8588 46.264 39.7864 46.1808 39.7323 46.086L38.0789 43.1925C37.9704 43.0033 37.9412 42.7789 37.9976 42.5683C38.054 42.3576 38.1914 42.1779 38.3798 42.0681L39.6356 41.3356L38.379 40.6032C38.1907 40.4933 38.0535 40.3134 37.9972 40.1028C37.941 39.8922 37.9704 39.6679 38.0789 39.4788L39.7323 36.5853C39.7865 36.4905 39.859 36.4075 39.9454 36.3409C40.0319 36.2743 40.1308 36.2255 40.2362 36.1973C40.3417 36.169 40.4517 36.162 40.5599 36.1765C40.668 36.1911 40.7723 36.2269 40.8666 36.2819L42.1033 37.0036ZM45.4102 36.3753H43.7568V38.4421C43.7568 38.5876 43.7185 38.7305 43.6456 38.8564C43.5728 38.9823 43.468 39.0868 43.3419 39.1592C43.2157 39.2317 43.0727 39.2696 42.9273 39.2691C42.7818 39.2686 42.639 39.2297 42.5134 39.1564L40.7541 38.1296L39.9208 39.588L41.6933 40.6214C41.818 40.6943 41.9214 40.7986 41.9933 40.9239C42.0651 41.0492 42.1029 41.1912 42.1029 41.3356C42.1029 41.4801 42.0651 41.622 41.9933 41.7474C41.9214 41.8727 41.818 41.977 41.6933 42.0499L39.9208 43.0833L40.7541 44.5417L42.5134 43.5157C42.639 43.4424 42.7817 43.4036 42.9271 43.403C43.0724 43.4025 43.2154 43.4403 43.3415 43.5127C43.4676 43.5851 43.5724 43.6894 43.6453 43.8152C43.7182 43.941 43.7567 44.0838 43.7568 44.2292V46.296H45.4102V44.2292C45.4103 44.0838 45.4488 43.941 45.5217 43.8152C45.5946 43.6894 45.6994 43.5851 45.8255 43.5127C45.9516 43.4403 46.0946 43.4025 46.24 43.403C46.3854 43.4036 46.5281 43.4424 46.6536 43.5157L48.4129 44.5417L49.2462 43.0842L47.4737 42.0508C47.3489 41.9779 47.2453 41.8735 47.1733 41.7481C47.1013 41.6227 47.0634 41.4807 47.0634 41.3361C47.0634 41.1915 47.1013 41.0494 47.1733 40.924C47.2453 40.7986 47.3489 40.6943 47.4737 40.6214L49.2462 39.588L48.4129 38.1296L46.6536 39.1564C46.528 39.2297 46.3852 39.2686 46.2398 39.2691C46.0943 39.2696 45.9513 39.2317 45.8252 39.1592C45.699 39.0868 45.5942 38.9823 45.5214 38.8564C45.4485 38.7305 45.4102 38.5876 45.4102 38.4421V36.3753Z" fill="#A35D2E"/>
<path fill-rule="evenodd" clip-rule="evenodd" d="M25.4531 21.925C25.5587 21.4954 25.4988 21.0418 25.2853 20.6543L24.5065 19.2456C24.1645 18.6287 23.9895 17.9333 23.9986 17.2281C24.0077 16.5228 24.2007 15.8322 24.5585 15.2244C24.9162 14.6165 25.4264 14.1126 26.0386 13.7623C26.6507 13.412 27.3437 13.2275 28.049 13.227C28.7543 13.2275 29.4473 13.412 30.0594 13.7623C30.6716 14.1126 31.1818 14.6165 31.5395 15.2244C31.8973 15.8322 32.0903 16.5228 32.0994 17.2281C32.1085 17.9333 31.9334 18.6287 31.5915 19.2456L30.8127 20.6543C30.5989 21.0417 30.5387 21.4953 30.6441 21.925C30.845 22.1796 31.0095 22.4632 31.1294 22.7699C31.4435 23.0733 31.8651 23.2527 32.3132 23.261L33.9212 23.2899C34.6078 23.3023 35.28 23.4889 35.8748 23.8323C36.8045 24.3712 37.4826 25.2569 37.7605 26.295C38.0383 27.3332 37.8933 28.4391 37.3571 29.3705C37.0048 29.9811 36.4992 30.4891 35.8904 30.8444C35.2815 31.1997 34.5905 31.3898 33.8856 31.3961C33.1807 31.4024 32.4864 31.2245 31.8713 30.8801C31.2563 30.5357 30.7418 30.0367 30.3787 29.4325L29.5495 28.0527C29.4313 27.8554 29.2754 27.6833 29.0907 27.5463C28.906 27.4093 28.6962 27.31 28.4731 27.2541C28.1916 27.291 27.9064 27.291 27.6249 27.2541C27.4018 27.31 27.1919 27.4093 27.0072 27.5463C26.8226 27.6833 26.6667 27.8554 26.5485 28.0527L25.7193 29.4325C25.3562 30.0367 24.8417 30.5357 24.2267 30.8801C23.6116 31.2245 22.9173 31.4024 22.2124 31.3961C21.5075 31.3898 20.8164 31.1997 20.2076 30.8444C19.5987 30.4891 19.0932 29.9811 18.7409 29.3705C18.2047 28.4391 18.0596 27.3332 18.3375 26.295C18.6154 25.2569 19.2935 24.3712 20.2232 23.8323C20.818 23.4889 21.4902 23.3023 22.1768 23.2899L23.7847 23.261C24.2273 23.2528 24.6502 23.0773 24.9686 22.7699C25.0885 22.4632 25.2522 22.1796 25.4531 21.925ZM31.2666 24.7392C31.1155 25.3759 30.7782 25.9533 30.2977 26.3976C30.5573 26.6266 30.7838 26.8961 30.9673 27.2012L31.7965 28.5818C32.0114 28.939 32.3159 29.234 32.6797 29.4375C33.0435 29.6411 33.4542 29.7462 33.8711 29.7424C34.288 29.7387 34.6967 29.6262 35.0568 29.4161C35.4169 29.206 35.7159 28.9056 35.9244 28.5446C36.242 27.993 36.3281 27.338 36.1637 26.7231C35.9992 26.1082 35.5978 25.5836 35.0472 25.2641C34.6957 25.0607 34.2983 24.95 33.8923 24.9425L32.2843 24.9144C31.9381 24.908 31.595 24.8489 31.2666 24.7392ZM24.8314 24.7392C24.503 24.8489 24.1598 24.908 23.8137 24.9144L22.2057 24.9425C21.7997 24.95 21.4022 25.0607 21.0508 25.2641C20.5002 25.5836 20.0987 26.1082 19.9343 26.7231C19.7699 27.338 19.856 27.993 20.1736 28.5446C20.3821 28.9056 20.6811 29.206 21.0412 29.4161C21.4013 29.6262 21.81 29.7387 22.2269 29.7424C22.6438 29.7462 23.0544 29.6411 23.4183 29.4375C23.7821 29.234 24.0865 28.939 24.3015 28.5818L25.1307 27.2012C25.3142 26.8961 25.5407 26.6266 25.8003 26.3976C25.3198 25.9533 24.9825 25.3759 24.8314 24.7392ZM28.049 22.321C28.2662 22.3211 28.4812 22.364 28.6818 22.4472C28.8824 22.5304 29.0647 22.6523 29.2182 22.806C29.3717 22.9596 29.4934 23.142 29.5764 23.3427C29.6595 23.5434 29.7021 23.7585 29.702 23.9757C29.7019 24.1929 29.659 24.4079 29.5758 24.6085C29.4926 24.8091 29.3707 24.9914 29.217 25.1449C29.0634 25.2984 28.881 25.4201 28.6803 25.5031C28.4796 25.5862 28.2645 25.6288 28.0473 25.6287C27.6087 25.6285 27.1881 25.4541 26.8781 25.1437C26.5681 24.8334 26.3941 24.4127 26.3943 23.974C26.3945 23.5354 26.569 23.1148 26.8793 22.8048C27.1896 22.4948 27.6104 22.3208 28.049 22.321ZM29.0113 20.8098C29.0799 20.4799 29.1981 20.1575 29.366 19.8549L30.1447 18.4453C30.3474 18.0802 30.4514 17.6684 30.4462 17.2508C30.441 16.8332 30.327 16.4242 30.1153 16.0642C29.9037 15.7041 29.6017 15.4056 29.2393 15.198C28.8769 14.9904 28.4666 14.8809 28.049 14.8805C27.6313 14.8809 27.2211 14.9904 26.8587 15.198C26.4963 15.4056 26.1943 15.7041 25.9826 16.0642C25.771 16.4242 25.6569 16.8332 25.6518 17.2508C25.6466 17.6684 25.7505 18.0802 25.9532 18.4453L26.732 19.8549C26.8998 20.1575 27.0181 20.4799 27.0867 20.8098C27.3909 20.7172 27.7142 20.6676 28.049 20.6676C28.3838 20.6676 28.7071 20.7172 29.0113 20.8098ZM32.1826 43.8158C32.1826 44.0351 32.0955 44.2454 31.9405 44.4004C31.7854 44.5554 31.5751 44.6425 31.3559 44.6425C31.1366 44.6425 30.9263 44.5554 30.7713 44.4004C30.6163 44.2454 30.5292 44.0351 30.5292 43.8158C30.5292 43.5966 30.6163 43.3863 30.7713 43.2312C30.9263 43.0762 31.1366 42.9891 31.3559 42.9891C31.5751 42.9891 31.7854 43.0762 31.9405 43.2312C32.0955 43.3863 32.1826 43.5966 32.1826 43.8158ZM23.9154 4.13309C23.9154 4.35235 24.0025 4.56263 24.1575 4.71767C24.3126 4.87271 24.5228 4.95981 24.7421 4.95981C24.9614 4.95981 25.1716 4.87271 25.3267 4.71767C25.4817 4.56263 25.5688 4.35235 25.5688 4.13309C25.5688 3.91383 25.4817 3.70355 25.3267 3.5485C25.1716 3.39346 24.9614 3.30636 24.7421 3.30636C24.5228 3.30636 24.3126 3.39346 24.1575 3.5485C24.0025 3.70355 23.9154 3.91383 23.9154 4.13309ZM24.7421 44.6417H28.049C28.2683 44.6417 28.4785 44.5546 28.6336 44.3996C28.7886 44.2445 28.8757 44.0343 28.8757 43.815C28.8757 43.5957 28.7886 43.3854 28.6336 43.2304C28.4785 43.0754 28.2683 42.9883 28.049 42.9883H24.7421C24.5228 42.9883 24.3126 43.0754 24.1575 43.2304C24.0025 43.3854 23.9154 43.5957 23.9154 43.815C23.9154 44.0343 24.0025 44.2445 24.1575 44.3996C24.3126 44.5546 24.5228 44.6417 24.7421 44.6417ZM31.3559 3.30554H28.049C27.8297 3.30554 27.6194 3.39264 27.4644 3.54768C27.3094 3.70272 27.2223 3.913 27.2223 4.13226C27.2223 4.35152 27.3094 4.5618 27.4644 4.71684C27.6194 4.87188 27.8297 4.95898 28.049 4.95898H31.3559C31.5751 4.95898 31.7854 4.87188 31.9405 4.71684C32.0955 4.5618 32.1826 4.35152 32.1826 4.13226C32.1826 3.913 32.0955 3.70272 31.9405 3.54768C31.7854 3.39264 31.5751 3.30554 31.3559 3.30554ZM11.3401 0.317757C11.2626 0.21877 11.1636 0.138718 11.0506 0.0836643C10.9376 0.0286107 10.8135 0 10.6878 0C10.5621 0 10.438 0.0286107 10.325 0.0836643C10.212 0.138718 10.113 0.21877 10.0355 0.317757C10.0355 0.317757 7.55451 3.50478 6.06558 6.37185C5.367 7.71528 4.8999 9.0058 4.8999 9.92015C4.8999 13.1138 7.49416 15.7072 10.687 15.7072C13.8798 15.7072 16.474 13.1138 16.474 9.92015C16.474 9.0058 16.0086 7.71528 15.31 6.37185C13.8211 3.50478 11.3401 0.317757 11.3401 0.317757ZM10.687 9.58202C10.3042 10.0772 9.82056 10.7419 9.46094 11.3711C9.23441 11.7679 9.03435 12.1308 9.03435 12.4003C9.03435 12.8388 9.20855 13.2594 9.51863 13.5695C9.82871 13.8796 10.2493 14.0538 10.6878 14.0538C11.1263 14.0538 11.5469 13.8796 11.857 13.5695C12.167 13.2594 12.3412 12.8388 12.3412 12.4003C12.3412 12.1308 12.1412 11.7679 11.9147 11.3711C11.555 10.7419 11.0714 10.0772 10.6878 9.58202H10.687ZM13.9939 12.3995C14.5139 11.7084 14.8206 10.8502 14.8206 9.92015C14.8206 9.1976 14.3948 8.19643 13.8434 7.13409C12.8844 5.28885 11.4955 3.30636 10.6878 2.20351C9.87926 3.30636 8.49119 5.28885 7.53219 7.13409C6.98077 8.19643 6.55418 9.1976 6.55418 9.92015C6.55418 10.8502 6.86172 11.7084 7.3809 12.3995C7.3809 11.925 7.62726 11.247 8.02574 10.5501C8.78881 9.21413 10.0595 7.72851 10.0595 7.72851C10.1372 7.63801 10.2335 7.56538 10.3419 7.51559C10.4503 7.4658 10.5681 7.44002 10.6874 7.44002C10.8066 7.44002 10.9245 7.4658 11.0329 7.51559C11.1413 7.56538 11.2376 7.63801 11.3153 7.72851C11.3153 7.72851 12.5868 9.21413 13.349 10.5501C13.7483 11.247 13.9939 11.925 13.9939 12.3995Z" fill="#A35D2E"/>
<path fill-rule="evenodd" clip-rule="evenodd" d="M6.55408 1.6529C6.55408 1.87216 6.46698 2.08244 6.31194 2.23748C6.1569 2.39252 5.94662 2.47962 5.72736 2.47962C5.5081 2.47962 5.29782 2.39252 5.14278 2.23748C4.98774 2.08244 4.90063 1.87216 4.90063 1.6529C4.90063 1.43363 4.98774 1.22335 5.14278 1.06831C5.29782 0.913273 5.5081 0.826172 5.72736 0.826172C5.94662 0.826172 6.1569 0.913273 6.31194 1.06831C6.46698 1.22335 6.55408 1.43363 6.55408 1.6529ZM16.4748 1.6529C16.4748 1.87216 16.3877 2.08244 16.2326 2.23748C16.0776 2.39252 15.8673 2.47962 15.648 2.47962C15.4288 2.47962 15.2185 2.39252 15.0635 2.23748C14.9084 2.08244 14.8213 1.87216 14.8213 1.6529C14.8213 1.43363 14.9084 1.22335 15.0635 1.06831C15.2185 0.913273 15.4288 0.826172 15.648 0.826172C15.8673 0.826172 16.0776 0.913273 16.2326 1.06831C16.3877 1.22335 16.4748 1.43363 16.4748 1.6529Z" fill="#A35D2E"/>
<ellipse opacity="0.08" cx="28.0001" cy="33.6" rx="22.4" ry="22.4" fill="#A35D2E"/>
</svg>
