<svg width="56" height="56" viewBox="0 0 56 56" fill="none" xmlns="http://www.w3.org/2000/svg">
<g clip-path="url(#clip0_80_2257)">
<ellipse opacity="0.08" cx="28.0001" cy="33.6" rx="22.4" ry="22.4" fill="#A35D2E"/>
<path d="M46.6468 23.9377H40.6143V2.19579C40.6143 0.985445 39.629 0 38.4181 0H8.49584C7.28503 0 6.30005 0.985352 6.30005 2.19588V30.6221C6.30005 31.833 7.28503 32.8178 8.49593 32.8178H34.7261V41.8432C34.7261 42.0289 34.7999 42.2069 34.9311 42.3381C35.0624 42.4694 35.2404 42.5431 35.426 42.5431C35.6116 42.5431 35.7897 42.4694 35.9209 42.3381C36.0522 42.2069 36.1259 42.0289 36.1259 41.8432V26.8816C36.1259 26.03 36.8185 25.3375 37.67 25.3375H38.4662V26.1335C38.4662 27.3445 39.4515 28.3295 40.6625 28.3295H43.6545C44.8655 28.3295 45.8504 27.3445 45.8504 26.1336V25.3375H46.6466C47.4981 25.3375 48.191 26.03 48.191 26.8816V44.835C48.191 45.6865 47.4981 46.3795 46.6466 46.3795H37.67C36.8185 46.3795 36.1259 45.6865 36.1259 44.835C36.1259 44.6494 36.0522 44.4714 35.9209 44.3401C35.7897 44.2089 35.6116 44.1352 35.426 44.1352C35.2404 44.1352 35.0624 44.2089 34.9311 44.3401C34.7999 44.4714 34.7261 44.6494 34.7261 44.835C34.7261 46.4586 36.0465 47.7792 37.67 47.7792H46.6466C48.2701 47.7792 49.5908 46.4586 49.5908 44.835V26.8815C49.5908 25.2583 48.2701 23.9377 46.6468 23.9377ZM35.5335 24.8596C35.2629 24.745 34.972 24.6858 34.6781 24.6857H12.2363C11.7971 24.6857 11.4402 24.3285 11.4402 23.8896C11.4402 23.4507 11.7975 23.0935 12.2363 23.0935H34.6781C35.889 23.0935 36.8739 22.1081 36.8739 20.8976C36.8739 19.6866 35.8886 18.7012 34.6781 18.7012H15.2284C15.0428 18.7012 14.8648 18.775 14.7335 18.9062C14.6023 19.0375 14.5285 19.2155 14.5285 19.4011C14.5285 19.5868 14.6023 19.7648 14.7335 19.896C14.8648 20.0273 15.0428 20.101 15.2284 20.101H34.6781C35.1169 20.101 35.4741 20.4583 35.4741 20.8976C35.4741 21.3365 35.1169 21.6936 34.6781 21.6936H12.2363C11.0254 21.6936 10.0404 22.6786 10.0404 23.8896C10.0404 25.1006 11.0254 26.0855 12.2363 26.0855H34.6781C34.7298 26.0855 34.7812 26.0924 34.8315 26.1023C34.7616 26.3562 34.7262 26.6183 34.7261 26.8817V27.6749C34.7101 27.6759 34.6941 27.6781 34.6781 27.6781H12.9843C12.7987 27.6781 12.6206 27.7519 12.4894 27.8831C12.3581 28.0144 12.2844 28.1924 12.2844 28.378C12.2844 28.5636 12.3581 28.7417 12.4894 28.8729C12.6206 29.0042 12.7987 29.0779 12.9843 29.0779H34.6781C34.6941 29.0779 34.7101 29.0768 34.7261 29.076V31.4185H8.49593C8.05705 31.4185 7.69983 31.0613 7.69983 30.6221V2.19579C7.69983 1.75691 8.05705 1.39969 8.49593 1.39969H38.4181C38.8573 1.39969 39.2146 1.75691 39.2146 2.19579V23.9376H37.6701C36.8294 23.9376 36.0706 24.2922 35.5336 24.8595L35.5335 24.8596ZM44.451 26.1336C44.451 26.5729 44.0937 26.9297 43.6545 26.9297H40.6625C40.2235 26.9297 39.8663 26.5729 39.8663 26.1336V25.3375H44.451V26.1336Z" fill="#A35D2E"/>
<path d="M42.1586 30.6701C41.7722 30.6701 41.4587 30.9836 41.4587 31.37V38.2354C40.1723 38.5504 39.2146 39.7125 39.2146 41.0948C39.2146 42.7181 40.5353 44.0387 42.1586 44.0387C43.7821 44.0387 45.1025 42.7181 45.1025 41.0948C45.1025 39.7125 44.1449 38.5504 42.8585 38.2355V31.37C42.8585 31.1844 42.7847 31.0064 42.6535 30.8752C42.5222 30.7439 42.3442 30.6702 42.1586 30.6702V30.6701ZM43.7027 41.0948C43.7027 41.9463 43.0101 42.6389 42.1586 42.6389C41.307 42.6389 40.6144 41.9463 40.6144 41.0948C40.6144 40.2433 41.307 39.5506 42.1586 39.5506C43.0101 39.5506 43.7027 40.2433 43.7027 41.0948ZM45.1509 34.3142H45.899C46.0846 34.3142 46.2626 34.2404 46.3939 34.1092C46.5251 33.9779 46.5989 33.7999 46.5989 33.6143C46.5989 33.4286 46.5251 33.2506 46.3939 33.1194C46.2626 32.9881 46.0846 32.9144 45.899 32.9144H45.1509C45.059 32.9143 44.968 32.9324 44.8831 32.9676C44.7981 33.0027 44.7209 33.0543 44.656 33.1193C44.591 33.1843 44.5394 33.2615 44.5042 33.3464C44.4691 33.4313 44.451 33.5223 44.451 33.6143C44.451 33.7999 44.5248 33.9779 44.656 34.1092C44.7873 34.2404 44.9653 34.3142 45.1509 34.3142ZM45.1509 37.3062H45.899C46.2853 37.3062 46.5989 36.9928 46.5989 36.6063C46.5989 36.22 46.2853 35.9065 45.899 35.9065H45.1509C44.9653 35.9065 44.7873 35.9802 44.656 36.1114C44.5248 36.2427 44.451 36.4207 44.451 36.6063C44.451 36.792 44.5248 36.97 44.656 37.1012C44.7873 37.2325 44.9653 37.3062 45.1509 37.3062ZM12.2364 8.13221H31.6857C32.072 8.13221 32.3856 7.81866 32.3856 7.43232C32.3856 7.04598 32.072 6.73243 31.6857 6.73243H12.2364C11.7972 6.73243 11.4403 6.37512 11.4403 5.93624C11.4403 5.49736 11.7975 5.14014 12.2364 5.14014H33.9301C34.1157 5.14014 34.2938 5.0664 34.425 4.93514C34.5563 4.80389 34.63 4.62587 34.63 4.44025C34.63 4.25462 34.5563 4.0766 34.425 3.94535C34.2938 3.81409 34.1157 3.74036 33.9301 3.74036H12.2364C11.0255 3.74036 10.0405 4.72533 10.0405 5.93624C10.0405 7.14723 11.0255 8.13221 12.2364 8.13221Z" fill="#A35D2E"/>
<path d="M34.6781 6.73248C34.2913 6.73248 33.9783 7.04594 33.9783 7.43237C33.9783 7.81881 34.2913 8.13226 34.6781 8.13226C35.117 8.13226 35.4742 8.48949 35.4742 8.92827C35.4742 9.36762 35.117 9.72484 34.6781 9.72484H12.2364C11.0255 9.72484 10.0405 10.7098 10.0405 11.9207C10.0405 13.1317 11.0255 14.1166 12.2364 14.1166H21.9609C22.1465 14.1166 22.3245 14.0429 22.4558 13.9116C22.587 13.7804 22.6608 13.6023 22.6608 13.4167C22.6608 13.2311 22.587 13.0531 22.4558 12.9218C22.3245 12.7906 22.1465 12.7168 21.9609 12.7168H12.2364C11.7972 12.7168 11.4403 12.3596 11.4403 11.9208C11.4403 11.4815 11.7975 11.1246 12.2364 11.1246H34.6781C35.889 11.1246 36.8739 10.1393 36.8739 8.92836C36.8739 7.71774 35.889 6.73248 34.6781 6.73248Z" fill="#A35D2E"/>
<path d="M34.6781 12.7169H24.9529C24.5666 12.7169 24.2531 13.0304 24.2531 13.4167C24.2531 13.8032 24.5666 14.1166 24.9529 14.1166H34.6781C35.117 14.1166 35.4742 14.474 35.4742 14.9128C35.4742 15.3521 35.117 15.7093 34.6781 15.7093H12.2364C11.0255 15.7093 10.0405 16.6943 10.0405 17.9052C10.0405 19.1158 11.0255 20.1011 12.2364 20.1011C12.6227 20.1011 12.9363 19.7876 12.9363 19.4012C12.9363 19.0147 12.6227 18.7013 12.2364 18.7013C11.7972 18.7013 11.4403 18.3441 11.4403 17.9053C11.4403 17.4659 11.7975 17.1091 12.2364 17.1091H34.6781C35.889 17.1091 36.8739 16.1237 36.8739 14.9128C36.8739 13.7022 35.889 12.7169 34.6781 12.7169Z" fill="#A35D2E"/>
</g>
<defs>
<clipPath id="clip0_80_2257">
<rect width="56" height="56" fill="white"/>
</clipPath>
</defs>
</svg>
