<svg width="56" height="56" viewBox="0 0 56 56" fill="none" xmlns="http://www.w3.org/2000/svg">
<path d="M37.2407 19.0436C37.4527 18.6016 37.5227 18.1048 37.4409 17.6214C37.3591 17.138 37.1297 16.6918 36.784 16.3441C36.3309 15.9119 35.7287 15.6708 35.1024 15.6708C34.4762 15.6708 33.8741 15.9119 33.4209 16.3441L32.8612 16.9046L32.0684 16.1118L33.3369 14.8433C33.6191 14.5728 33.9615 14.3731 34.3361 14.2609C34.7106 14.1487 35.1064 14.1271 35.4909 14.198C36.5956 14.3597 37.7227 14.262 38.783 13.9128C39.8434 13.5635 40.8079 12.9723 41.6003 12.1859C42.6079 11.1827 43.2919 9.9006 43.5639 8.50499C43.836 7.10938 43.6836 5.66428 43.1264 4.3561C43.0759 4.23647 42.9967 4.1311 42.8959 4.04924C42.795 3.96738 42.6756 3.91155 42.5482 3.88665C42.4207 3.86176 42.2891 3.86855 42.1649 3.90645C42.0406 3.94435 41.9276 4.01218 41.8358 4.10399L37.9732 7.96337L36.1053 7.58996L35.7304 5.72052L39.5897 1.86035C39.6821 1.76851 39.7504 1.65534 39.7886 1.53084C39.8268 1.40634 39.8337 1.27435 39.8088 1.14652C39.7839 1.0187 39.7279 0.898987 39.6457 0.79796C39.5635 0.696933 39.4577 0.617705 39.3376 0.56728C38.1689 0.0711592 36.889 -0.104126 35.6299 0.0595126C34.3708 0.223151 33.1782 0.719785 32.1751 1.49817C31.1721 2.27655 30.3949 3.30849 29.9237 4.48749C29.4526 5.6665 29.3045 6.94987 29.4949 8.20518C29.5645 8.58937 29.5422 8.98457 29.43 9.35852C29.3177 9.73247 29.1185 10.0746 28.8488 10.3569L27.5803 11.6253L22.2986 6.34288L21.2315 4.21419C21.1602 4.07136 21.0475 3.95337 20.908 3.87566L15.8666 1.07943C15.716 0.995711 15.5422 0.963345 15.3715 0.987234C15.2008 1.01112 15.0426 1.08997 14.9208 1.21183L13.8029 2.32969C13.6812 2.45147 13.6025 2.60956 13.5786 2.78005C13.5547 2.95054 13.587 3.12418 13.6705 3.27471L16.4691 8.31696C16.5465 8.45659 16.6642 8.5696 16.8069 8.64122L18.9363 9.70913L24.2172 14.9908L22.9487 16.2593C22.6665 16.5299 22.324 16.7295 21.9495 16.8417C21.575 16.9539 21.1792 16.9755 20.7947 16.9046C19.5399 16.7163 18.2577 16.8656 17.0799 17.3373C15.902 17.8091 14.8712 18.5861 14.0934 19.5886C13.3156 20.591 12.819 21.7826 12.6546 23.0407C12.4903 24.2988 12.6642 25.578 13.1584 26.7465C13.2089 26.8662 13.2881 26.9716 13.3889 27.0534C13.4898 27.1353 13.6092 27.1911 13.7366 27.216C13.8641 27.2409 13.9957 27.2341 14.1199 27.1962C14.2442 27.1583 14.3572 27.0905 14.449 26.9987L18.31 23.1393L20.1779 23.5127L20.5513 25.3813L16.6919 29.2415C16.6001 29.3334 16.5323 29.4464 16.4944 29.5706C16.4565 29.6948 16.4497 29.8265 16.4746 29.9539C16.4995 30.0814 16.5553 30.2008 16.6371 30.3016C16.719 30.4025 16.8244 30.4816 16.944 30.5322C18.1127 31.0283 19.3927 31.2036 20.6517 31.04C21.9108 30.8763 23.1034 30.3797 24.1065 29.6013C25.1096 28.8229 25.8868 27.791 26.3579 26.612C26.8291 25.433 26.9771 24.1496 26.7867 22.8943C26.7171 22.5101 26.7394 22.1149 26.8517 21.741C26.964 21.367 27.1631 21.0249 27.4328 20.7426L28.7013 19.4741L29.4941 20.2669L28.9352 20.829C28.5356 21.224 28.2892 21.7479 28.2398 22.3076C28.1904 22.8673 28.3413 23.4263 28.6655 23.8851C28.9898 24.3439 29.4664 24.6728 30.0104 24.8131C30.5544 24.9533 31.1306 24.896 31.6363 24.6512L36.3186 29.3343C36.6867 29.7024 37.1237 29.9944 37.6047 30.1937C38.0856 30.393 38.6011 30.4955 39.1217 30.4956C39.6423 30.4956 40.1578 30.3931 40.6388 30.1939C41.1198 29.9947 41.5568 29.7028 41.9249 29.3347C42.2931 28.9666 42.5851 28.5296 42.7844 28.0486C42.9836 27.5677 43.0862 27.0522 43.0863 26.5316C43.0863 26.011 42.9838 25.4955 42.7846 25.0145C42.5854 24.5335 42.2934 24.0965 41.9253 23.7283L37.2407 19.0436ZM19.9662 8.49535C19.9065 8.43521 19.8374 8.38514 19.7616 8.34709L17.7368 7.33151L15.3465 3.02498L15.6161 2.75543L19.9218 5.14574L20.9374 7.16977C20.9751 7.24593 21.0252 7.31531 21.0856 7.37511L26.4577 12.748L25.3351 13.8698L19.9662 8.49535ZM26.3189 19.6208C25.8725 20.0777 25.5406 20.634 25.3506 21.2439C25.1605 21.8538 25.1177 22.5001 25.2257 23.1298C25.3573 24.0022 25.2793 24.8935 24.9978 25.7298C24.7164 26.5661 24.2398 27.3233 23.6075 27.9386C22.9751 28.554 22.2053 29.0099 21.3616 29.2684C20.518 29.527 19.6249 29.5808 18.7564 29.4254L21.9799 26.2027C22.0717 26.1106 22.1395 25.9974 22.1772 25.873C22.215 25.7485 22.2216 25.6167 22.1964 25.4892L21.6319 22.6866C21.6015 22.5322 21.5258 22.3904 21.4146 22.2791C21.3033 22.1679 21.1615 22.0922 21.0071 22.0619L18.2046 21.5013C18.077 21.4761 17.9452 21.4827 17.8208 21.5204C17.6963 21.5582 17.5831 21.626 17.491 21.7178L14.2683 24.9405C14.1132 24.0722 14.1671 23.1795 14.4256 22.3361C14.6841 21.4928 15.1398 20.7232 15.7548 20.0909C16.3699 19.4587 17.1266 18.982 17.9625 18.7004C18.7984 18.4187 19.6893 18.3402 20.5616 18.4712C21.1914 18.5752 21.8368 18.5306 22.4463 18.341C23.0558 18.1513 23.6126 17.8218 24.0721 17.3787L29.9698 11.4818C30.4163 11.0249 30.7482 10.4687 30.9382 9.85877C31.1282 9.24884 31.171 8.60255 31.0631 7.97289C30.9314 7.10041 31.0095 6.20912 31.2909 5.37285C31.5723 4.53657 32.0489 3.77938 32.6813 3.16401C33.3136 2.54863 34.0835 2.09278 34.9271 1.83423C35.7707 1.57567 36.6638 1.52184 37.5324 1.67721L34.3089 4.89997C34.217 4.99203 34.1493 5.10527 34.1115 5.2297C34.0738 5.35413 34.0672 5.48593 34.0924 5.61349L34.6529 8.41607C34.6837 8.56943 34.7591 8.71027 34.8697 8.82088C34.9803 8.93148 35.1211 9.00689 35.2745 9.03763L38.0771 9.59814C38.2046 9.62334 38.3364 9.61678 38.4609 9.57904C38.5853 9.5413 38.6985 9.47353 38.7906 9.3817L42.0165 6.16212C42.1716 7.03043 42.1177 7.92319 41.8592 8.76651C41.6007 9.60983 41.145 10.3795 40.53 11.0117C39.9149 11.644 39.1582 12.1206 38.3223 12.4023C37.4864 12.684 36.5955 12.7625 35.7232 12.6314C35.0931 12.5277 34.4475 12.5729 33.8379 12.7633C33.2283 12.9536 32.6718 13.284 32.2127 13.7279L26.3189 19.6208ZM30.9505 17.2329L31.7433 18.0257L30.616 19.1475L29.8231 18.3547L30.9505 17.2329ZM30.0602 23.0711C29.9116 22.9224 29.8281 22.7208 29.8281 22.5106C29.8281 22.3004 29.9116 22.0987 30.0602 21.9501L34.5451 17.4652C34.6188 17.3916 34.7062 17.3332 34.8024 17.2934C34.8986 17.2535 35.0018 17.2331 35.1059 17.2331C35.21 17.2331 35.3131 17.2537 35.4093 17.2936C35.5055 17.3335 35.5929 17.3919 35.6665 17.4656C35.7401 17.5392 35.7985 17.6267 35.8383 17.7229C35.8782 17.8191 35.8986 17.9222 35.8986 18.0264C35.8986 18.1305 35.878 18.2336 35.8381 18.3298C35.7982 18.426 35.7398 18.5134 35.6661 18.587L31.1804 23.0719C31.0293 23.217 30.8278 23.298 30.6182 23.2979C30.4086 23.2977 30.2072 23.2165 30.0562 23.0711H30.0602ZM40.8083 28.2132C40.3617 28.6584 39.7569 28.9084 39.1263 28.9084C38.4958 28.9084 37.891 28.6584 37.4444 28.2132L32.8628 23.6316L36.2266 20.2685L40.8083 24.8494C41.0292 25.0702 41.2044 25.3324 41.324 25.621C41.4435 25.9096 41.505 26.2189 41.505 26.5313C41.505 26.8437 41.4435 27.153 41.324 27.4416C41.2044 27.7302 41.0292 27.9924 40.8083 28.2132Z" fill="#A35D2E"/>
<path d="M51.0929 36.5065C50.8854 36.1458 50.6088 35.8295 50.279 35.5757C49.9491 35.3219 49.5725 35.1357 49.1707 35.0275C48.7688 34.9193 48.3496 34.8914 47.9369 34.9454C47.5243 34.9993 47.1263 35.1341 46.7657 35.3419L39.0351 39.8046C38.614 39.1717 37.9777 38.7128 37.2441 38.5131L25.4155 35.3419C24.5049 35.0978 23.5473 35.0896 22.6327 35.3181L18.4705 36.363V35.0002C18.4705 34.7899 18.3869 34.5883 18.2383 34.4396C18.0896 34.2909 17.8879 34.2074 17.6777 34.2074H11.3352C11.1249 34.2074 10.9233 34.2909 10.7746 34.4396C10.6259 34.5883 10.5424 34.7899 10.5424 35.0002V35.793H4.99276C4.78249 35.793 4.58084 35.8765 4.43216 36.0252C4.28348 36.1739 4.19995 36.3756 4.19995 36.5858V47.6851C4.19995 47.8954 4.28348 48.097 4.43216 48.2457C4.58084 48.3944 4.78249 48.4779 4.99276 48.4779H10.5424V49.2707C10.5424 49.481 10.6259 49.6826 10.7746 49.8313C10.9233 49.98 11.1249 50.0635 11.3352 50.0635H17.6777C17.8879 50.0635 18.0896 49.98 18.2383 49.8313C18.3869 49.6826 18.4705 49.481 18.4705 49.2707V48.1751L19.49 48.6848C20.2608 49.0693 21.1102 49.2699 21.9715 49.2707H33.8454C34.8195 49.2703 35.7764 49.0138 36.6202 48.5271L49.9393 40.8368C50.6643 40.4135 51.1924 39.7206 51.4085 38.9094C51.6246 38.0982 51.5111 37.2344 51.0929 36.5065ZM5.78556 46.8923V37.3786H10.5424V46.8923H5.78556ZM16.8849 48.4779H12.128V35.793H16.8849V48.4779ZM49.1442 39.4669L35.825 47.1571C35.2224 47.5051 34.5388 47.6883 33.843 47.6883H21.9715C21.3565 47.6873 20.75 47.5441 20.1996 47.2697L18.4705 46.4023V37.9986L23.0164 36.8617C23.67 36.6991 24.3541 36.7048 25.0048 36.8784L36.8335 40.0496C37.0381 40.1002 37.2306 40.1911 37.3997 40.317C37.5688 40.4429 37.7111 40.6012 37.8183 40.7827C37.9254 40.9643 37.9953 41.1654 38.0239 41.3742C38.0524 41.5831 38.039 41.7956 37.9845 41.9992C37.9299 42.2028 37.8353 42.3935 37.7061 42.5602C37.577 42.7268 37.4159 42.866 37.2324 42.9696C37.0488 43.0733 36.8464 43.1393 36.637 43.1637C36.4276 43.1882 36.2154 43.1707 36.0129 43.1122L26.5571 40.5768C26.3543 40.5236 26.1388 40.5528 25.9575 40.6581C25.7762 40.7634 25.6441 40.9362 25.5899 41.1387C25.5357 41.3412 25.5639 41.5569 25.6683 41.7386C25.7728 41.9204 25.945 42.0534 26.1472 42.1085L35.6014 44.6455C35.8709 44.7178 36.1486 44.7545 36.4275 44.7549C36.8654 44.7582 37.2991 44.6697 37.7006 44.4951C38.1021 44.3205 38.4626 44.0637 38.7588 43.7412C39.055 43.4187 39.2803 43.0378 39.4202 42.6229C39.5601 42.208 39.6115 41.7683 39.571 41.3324L47.5562 36.7222C47.9215 36.5207 48.3508 36.4686 48.7537 36.5768C49.1567 36.685 49.5021 36.9451 49.7174 37.3025C49.926 37.6661 49.9829 38.0973 49.8755 38.5025C49.7682 38.9077 49.5054 39.2542 49.1442 39.4669Z" fill="#A35D2E"/>
<ellipse opacity="0.08" cx="28.0001" cy="33.6" rx="22.4" ry="22.4" fill="#A35D2E"/>
</svg>
