<svg width="56" height="56" viewBox="0 0 56 56" fill="none" xmlns="http://www.w3.org/2000/svg">
<g clip-path="url(#clip0_80_2312)">
<path d="M44.4985 21.3602C44.8103 21.109 45.0099 20.7445 45.0534 20.3465C45.097 19.9485 44.981 19.5495 44.7309 19.2369L44.0532 18.3925C43.4323 10.0254 36.4216 3.50099 27.9999 3.50099C23.9821 3.50089 20.1094 5.00321 17.1427 7.71281C14.1761 10.4224 12.3298 14.1434 11.9668 18.1448L11.1415 19.1728C10.8912 19.4854 10.7751 19.8844 10.8187 20.2825C10.8622 20.6805 11.0618 21.0451 11.3738 21.2961L12.0565 21.8442C12.5226 25.1472 14.0025 28.2241 16.2919 30.6502C18.5813 33.0763 21.5674 34.7319 24.8379 35.3885C24.9209 35.405 25.0063 35.405 25.0893 35.3885C25.1722 35.3721 25.2512 35.3394 25.3215 35.2924C25.3919 35.2454 25.4523 35.185 25.4993 35.1147C25.5463 35.0444 25.579 34.9655 25.5955 34.8825C25.6121 34.7995 25.6121 34.7141 25.5956 34.6311C25.5791 34.5482 25.5465 34.4692 25.4995 34.3989C25.4525 34.3285 25.3921 34.2681 25.3218 34.2211C25.2514 34.1741 25.1725 34.1414 25.0896 34.1249C22.2812 33.5694 19.695 32.2092 17.646 30.2099C15.597 28.2107 14.1737 25.6587 13.5493 22.8648C13.8748 22.946 14.2182 22.9161 14.5248 22.7798C15.0747 23.2141 15.8491 23.4907 16.8719 23.6179C17.0241 23.7171 17.1765 23.8158 17.3293 23.914C17.6342 24.1103 17.6342 24.1103 17.715 24.1952C17.7752 24.2581 17.8684 24.3556 18.0319 24.5142L17.7144 25.064C17.492 25.4503 17.4319 25.9091 17.5473 26.3397C17.6627 26.7703 17.9441 27.1375 18.33 27.3608L18.4422 27.4256C18.6866 27.5674 18.963 27.6447 19.2455 27.6504C19.2883 27.8914 19.3833 28.1201 19.5239 28.3204C19.6644 28.5208 19.8471 28.688 20.0591 28.8104L20.1713 28.8751C20.5047 29.068 20.8944 29.14 21.2747 29.079C21.4114 29.439 21.6686 29.7405 22.0025 29.9324L22.1148 29.9972C22.5658 30.2578 23.1095 30.2335 23.5856 30.0378C23.7314 30.2753 23.9343 30.4726 24.1759 30.6117L24.2881 30.6766C24.5427 30.824 24.8318 30.9016 25.126 30.9015C25.4166 30.9014 25.7023 30.8265 25.9556 30.6841L26.7556 31.2685C27.4932 31.8072 28.1522 32.0775 28.7245 32.0775C28.9658 32.0795 29.2044 32.0269 29.4225 31.9238C29.8286 31.73 30.1395 31.3509 30.3213 30.8535C30.5057 30.9051 30.6962 30.9317 30.8878 30.9327C31.1889 30.9338 31.4859 30.8631 31.7542 30.7264C32.0215 30.5847 32.2542 30.3856 32.4354 30.1433C32.6167 29.901 32.742 29.6216 32.8024 29.3251C33.2399 29.3251 33.669 29.2047 34.0427 28.9771C34.3047 28.8182 34.5272 28.6018 34.6933 28.3442C34.8593 28.0867 34.9646 27.7947 35.0012 27.4904C35.0117 27.4904 35.0222 27.4916 35.0328 27.4916C35.3414 27.4924 35.6466 27.4262 35.9271 27.2975C36.2077 27.1689 36.4571 26.9809 36.6579 26.7466C36.8588 26.5122 37.0064 26.237 37.0906 25.9401C37.1748 25.6431 37.1935 25.3314 37.1455 25.0265C37.1256 24.9015 37.0947 24.7784 37.0532 24.6588C37.2635 24.5823 37.4664 24.4867 37.6593 24.3733C38.0839 24.1202 38.4528 23.7686 38.807 23.4183L40.9947 22.6265C41.1933 22.7912 41.4308 22.9023 41.6846 22.9491C41.9383 22.996 42.1999 22.9769 42.4442 22.8939C41.8158 25.6881 40.3874 28.2388 38.3334 30.2345C36.2793 32.2302 33.6885 33.5846 30.8775 34.1323C30.7205 34.1633 30.5808 34.2515 30.4853 34.3799C30.3899 34.5082 30.3456 34.6674 30.361 34.8266C30.3764 34.9858 30.4505 35.1336 30.5689 35.2412C30.6872 35.3488 30.8413 35.4085 31.0012 35.4088C31.0433 35.4088 31.0852 35.4047 31.1264 35.3966C34.4119 34.7446 37.4124 33.0848 39.7107 30.6481C42.0089 28.2114 43.4905 25.1189 43.9494 21.801L44.4985 21.3602ZM27.9999 4.78947C31.374 4.79352 34.6459 5.9476 37.2759 8.06132C39.9058 10.175 41.7367 13.1221 42.4664 16.4163L38.1213 11.0038C37.87 10.6922 37.5055 10.4928 37.1076 10.4492C36.7096 10.4057 36.3107 10.5216 35.998 10.7716L34.4018 12.053C34.1381 12.265 33.9533 12.5595 33.8769 12.8892C33.8006 13.2189 33.8372 13.5647 33.9808 13.8711C32.4096 14.4199 31.379 14.6306 29.028 14.2965C28.2488 14.1863 27.1285 14.4842 25.5332 15.2287C24.6631 15.2688 23.9358 14.9692 22.6579 14.4395C22.3521 14.3122 22.0457 14.1867 21.7385 14.0629C21.9702 13.7494 22.0716 13.3585 22.0216 12.972C21.9716 12.5854 21.7741 12.2332 21.4703 11.989L19.8742 10.7076C19.5615 10.4577 19.1626 10.3418 18.7646 10.3853C18.3667 10.4288 18.0022 10.6282 17.7509 10.9399L13.6081 16.1006C15.1957 9.59798 21.1148 4.78947 27.9999 4.78947ZM13.777 21.5729L13.0606 20.9985L13.0563 20.9951L12.1804 20.292C12.1352 20.2547 12.1064 20.2012 12.1 20.143C12.0937 20.0847 12.1103 20.0263 12.1464 19.9801L18.7558 11.7466C18.7742 11.7241 18.7968 11.7055 18.8223 11.6917C18.8479 11.6779 18.8759 11.6694 18.9048 11.6665C18.9131 11.6656 18.9214 11.6651 18.9297 11.6652C18.9798 11.6648 19.0286 11.6816 19.0677 11.713L20.6638 12.9943C20.7092 13.0315 20.7381 13.085 20.7445 13.1433C20.7508 13.2016 20.7341 13.26 20.6979 13.3061L20.1858 13.9441L20.1821 13.9487L14.0881 21.5396C14.0507 21.5844 13.9973 21.613 13.9393 21.6192C13.8812 21.6254 13.8231 21.6088 13.777 21.5729ZM19.7162 26.0424C19.6805 26.0797 19.6494 26.1212 19.6235 26.166C19.5709 26.2556 19.4851 26.3209 19.3847 26.3478C19.2843 26.3747 19.1773 26.361 19.0869 26.3097L18.9746 26.2449C18.8855 26.1919 18.8205 26.1061 18.7937 26.0059C18.7668 25.9056 18.7802 25.7988 18.8309 25.7083L19.9069 23.8445C19.9327 23.7999 19.9671 23.7609 20.0081 23.7297C20.0491 23.6985 20.0959 23.6757 20.1458 23.6627C20.1797 23.6536 20.2147 23.6489 20.2498 23.6489C20.3179 23.6488 20.3848 23.6668 20.4437 23.7009L20.5559 23.7655C20.6451 23.8186 20.71 23.9044 20.7368 24.0046C20.7636 24.1049 20.7502 24.2116 20.6995 24.3022C20.6666 24.3592 20.6425 24.421 20.6283 24.4853C20.589 24.5379 20.5529 24.5929 20.5201 24.6498L19.7162 26.0424ZM22.3512 25.9665L21.5 27.441C21.4409 27.4899 21.3911 27.5489 21.3528 27.6154C21.2997 27.7046 21.2139 27.7695 21.1137 27.7964C21.0134 27.8232 20.9067 27.8099 20.8161 27.7591L20.7038 27.6944C20.6146 27.6414 20.5497 27.5556 20.5228 27.4553C20.4959 27.3551 20.5093 27.2483 20.56 27.1578L21.6352 25.2941C21.6706 25.2344 21.7209 25.185 21.7813 25.1508C21.8417 25.1167 21.9099 25.0989 21.9793 25.0992C22.0469 25.099 22.1133 25.1166 22.1719 25.1503L22.2842 25.2151C22.3738 25.2677 22.4391 25.3535 22.466 25.4539C22.4929 25.5543 22.4793 25.6612 22.428 25.7516C22.3896 25.818 22.3634 25.8908 22.3507 25.9665H22.3512ZM24.3722 26.8737C24.3467 26.918 24.3266 26.9651 24.3121 27.014L23.5604 28.3154C23.5063 28.4091 23.4613 28.5077 23.4261 28.61C23.2613 28.8254 22.8779 28.9508 22.759 28.8817L22.6467 28.817C22.5571 28.7643 22.4918 28.6785 22.4649 28.5781C22.438 28.4777 22.4518 28.3707 22.5031 28.2804L23.579 26.4165C23.6144 26.3569 23.6647 26.3075 23.7251 26.2733C23.7855 26.2391 23.8537 26.2213 23.9231 26.2217C23.9906 26.2215 24.057 26.2391 24.1156 26.2727L24.228 26.3376C24.3176 26.3902 24.3829 26.476 24.4098 26.5764C24.4367 26.6768 24.423 26.7838 24.3717 26.8742L24.3722 26.8737ZM24.933 29.5608L24.8208 29.496C24.7316 29.4429 24.6666 29.3571 24.6398 29.2569C24.6129 29.1566 24.6262 29.0499 24.6769 28.9593L25.753 27.0956C25.7884 27.0359 25.8387 26.9865 25.8991 26.9523C25.9595 26.9181 26.0277 26.9003 26.0971 26.9007C26.1646 26.9005 26.231 26.9181 26.2895 26.9517L26.4019 27.0166C26.4915 27.0693 26.5568 27.1551 26.5837 27.2555C26.6106 27.3559 26.5969 27.4629 26.5456 27.5533L25.4698 29.417C25.4167 29.5062 25.3308 29.5712 25.2305 29.598C25.1302 29.6249 25.0234 29.6115 24.9328 29.5608H24.933ZM35.7213 25.8553C35.5884 26.037 35.3889 26.1586 35.1664 26.1932C34.944 26.2279 34.7169 26.1728 34.535 26.0402L32.0192 24.2028C31.9509 24.1522 31.8733 24.1155 31.7908 24.095C31.7083 24.0744 31.6225 24.0704 31.5385 24.0832C31.4544 24.0959 31.3737 24.1252 31.301 24.1693C31.2283 24.2134 31.1651 24.2715 31.1149 24.3401C31.0648 24.4088 31.0287 24.4867 31.0088 24.5694C30.9889 24.652 30.9855 24.7378 30.9989 24.8218C31.0124 24.9057 31.0422 24.9862 31.0869 25.0586C31.1316 25.1309 31.1901 25.1937 31.2591 25.2433L33.7282 27.0467C33.7616 27.4286 33.6395 27.7098 33.3622 27.8823C33.0346 28.0857 32.5491 28.0914 32.2797 27.8946L30.1282 26.3231C29.9902 26.2239 29.8185 26.1833 29.6506 26.2101C29.4827 26.2369 29.3322 26.329 29.2319 26.4663C29.1316 26.6035 29.0897 26.7749 29.1152 26.943C29.1407 27.1111 29.2316 27.2623 29.3682 27.3636L31.5196 28.9351C31.5327 28.9451 31.5468 28.9527 31.5597 28.9619C31.5102 29.2506 31.372 29.4738 31.1669 29.5788C30.9111 29.7096 30.5707 29.6434 30.2335 29.397L28.7629 28.323C28.6248 28.2237 28.4531 28.1831 28.2852 28.2099C28.1173 28.2367 27.9668 28.3288 27.8666 28.4661C27.7663 28.6034 27.7243 28.7747 27.7498 28.9428C27.7754 29.1109 27.8663 29.2621 28.0028 29.3635L29.1669 30.2136C29.1076 30.487 28.9965 30.6987 28.8671 30.7604C28.685 30.8473 28.2339 30.7531 27.5151 30.2281L26.7927 29.7004L27.6603 28.1977C27.8825 27.8113 27.9425 27.3526 27.8271 26.9221C27.7118 26.4916 27.4306 26.1244 27.0451 25.9008L26.9326 25.8359C26.7065 25.7054 26.4531 25.6293 26.1925 25.6138C25.9318 25.5983 25.6712 25.6438 25.4312 25.7466C25.288 25.5304 25.0965 25.3506 24.8717 25.2214L24.7592 25.1564C24.4259 24.9636 24.0362 24.8916 23.656 24.9526C23.5192 24.5926 23.2621 24.291 22.9282 24.0992L22.8159 24.0344C22.5714 23.8929 22.295 23.8157 22.0126 23.8099C21.9697 23.5689 21.8747 23.3401 21.7341 23.1397C21.5936 22.9393 21.4108 22.772 21.1988 22.6496L21.0866 22.585C20.7003 22.3627 20.2416 22.3027 19.8111 22.418C19.3806 22.5334 19.0134 22.8147 18.7899 23.2003L18.698 23.3594C18.6794 23.34 18.6624 23.3223 18.6479 23.3069C18.461 23.1104 18.4114 23.0785 18.0265 22.8307C17.8335 22.7067 17.6411 22.5819 17.4492 22.4564C17.3639 22.4006 17.2666 22.3658 17.1653 22.355C16.4336 22.2765 15.8608 22.1112 15.4738 21.8708L20.8973 15.1152C21.3711 15.3013 21.7873 15.4737 22.1642 15.6298C22.7592 15.8916 23.3682 16.1201 23.9884 16.3144C23.8772 16.4483 23.7696 16.5876 23.6607 16.7301L23.605 16.8029C23.3361 17.1537 22.8333 17.7999 22.4848 18.1831C22.42 18.2543 22.3613 18.3155 22.3082 18.371C22.0733 18.6164 21.8513 18.8484 21.757 19.2685C21.6475 19.7578 21.7247 20.4676 22.1435 20.9507C22.5019 21.3638 23.1239 21.61 23.8085 21.61H23.8141C24.4055 21.6088 24.8686 21.4058 25.4243 21.0783C25.5263 21.0179 25.6278 20.9566 25.7288 20.8946C26.1833 20.617 26.749 20.2716 27.2914 20.1223C29.2218 19.5911 32.1673 21.9759 34.1162 23.5541C34.63 23.9702 35.1152 24.3632 35.535 24.6698C35.7158 24.8033 35.8366 25.0027 35.8712 25.2248C35.9058 25.4468 35.8513 25.6735 35.7196 25.8557L35.7213 25.8553ZM37 23.2662C36.7554 23.4024 36.4939 23.5058 36.2222 23.5737C35.8437 23.293 35.3989 22.9332 34.9292 22.5525C32.6467 20.704 29.5212 18.1724 26.9514 18.8797C26.2343 19.0771 25.5828 19.4749 25.0593 19.7945C24.9585 19.8562 24.8625 19.9148 24.7725 19.9678C24.2664 20.2659 24.0524 20.3208 23.8136 20.3213H23.8102C23.5173 20.3213 23.2267 20.2311 23.1186 20.1062C23.0153 19.987 22.9792 19.714 23.016 19.5494C23.029 19.491 23.0484 19.4622 23.2402 19.2617C23.3003 19.1993 23.3661 19.13 23.4392 19.0498C23.8194 18.6316 24.348 17.9532 24.6292 17.5864L24.6857 17.5125C24.9947 17.1082 25.2179 16.8162 25.5057 16.6727C27.5378 15.6595 28.4451 15.5154 28.8473 15.5723C31.6827 15.9749 32.9046 15.6301 34.7917 14.9508L40.1104 21.5762L38.2354 22.2551C38.1472 22.2867 38.0671 22.3372 38.0006 22.4031C37.6549 22.746 37.3287 23.0698 36.9995 23.2662H37ZM41.7845 21.6023L35.1749 13.3689C35.1388 13.3227 35.1221 13.2643 35.1285 13.2061C35.1348 13.1478 35.1637 13.0943 35.209 13.0571L36.8051 11.7757C36.8513 11.7395 36.9097 11.7228 36.968 11.7292C37.0263 11.7356 37.0797 11.7646 37.1169 11.8099L43.7262 20.0435C43.7625 20.0896 43.7792 20.1481 43.7729 20.2064C43.7665 20.2646 43.7376 20.3181 43.6923 20.3553L42.0961 21.6367C42.0499 21.6729 41.9914 21.6895 41.9331 21.6832C41.8748 21.6768 41.8212 21.6479 41.784 21.6026L41.7845 21.6023ZM29.0301 35.0347C29.0342 35.2055 28.9703 35.371 28.8524 35.4947C28.7345 35.6184 28.5724 35.6902 28.4015 35.6944C28.2679 35.6976 28.134 35.6992 27.9999 35.6993C27.829 35.6993 27.6651 35.6314 27.5443 35.5106C27.4235 35.3898 27.3556 35.2259 27.3556 35.055C27.3556 34.8841 27.4235 34.7203 27.5443 34.5994C27.6651 34.4786 27.829 34.4107 27.9999 34.4107C28.1238 34.4107 28.2474 34.4092 28.3708 34.4062C28.4553 34.4041 28.5395 34.4187 28.6184 34.4492C28.6973 34.4796 28.7695 34.5254 28.8307 34.5837C28.892 34.6421 28.9411 34.712 28.9753 34.7894C29.0095 34.8667 29.0281 34.9501 29.0301 35.0347ZM42.5003 32.7738C45.7849 29.173 47.6039 24.4739 47.5999 19.6001C47.5999 8.79262 38.8074 0 27.9999 0C17.1924 0 8.39991 8.79262 8.39991 19.6001C8.39599 24.4739 10.215 29.1729 13.4994 32.7737L9.68237 44.0307C9.6552 44.1108 9.64408 44.1955 9.64966 44.2799C9.65523 44.3644 9.67738 44.4469 9.71484 44.5228C9.7523 44.5986 9.80435 44.6664 9.868 44.7222C9.93165 44.7779 10.0057 44.8206 10.0858 44.8477L10.1348 44.8644C10.2311 44.897 10.3337 44.9063 10.4343 44.8917C10.5349 44.8771 10.6306 44.8389 10.7137 44.7802L17.5532 39.9409L20.0389 47.9421C20.0692 48.0395 20.1222 48.1284 20.1935 48.2013C20.2648 48.2743 20.3524 48.3293 20.4492 48.3618L20.4981 48.3782C20.6597 48.4327 20.8364 48.4207 20.9893 48.345C21.1422 48.2693 21.2587 48.136 21.3133 47.9744L24.401 38.8678C26.7797 39.311 29.2199 39.311 31.5986 38.8678L34.6864 47.9743C34.741 48.1359 34.8576 48.2693 35.0105 48.345C35.1634 48.4207 35.3402 48.4326 35.5018 48.378L35.5508 48.3616C35.6474 48.3291 35.7349 48.2741 35.8062 48.2012C35.8774 48.1282 35.9303 48.0394 35.9606 47.9421L38.4463 39.9409L45.2858 44.7802C45.3689 44.8389 45.4647 44.8771 45.5653 44.8917C45.666 44.9064 45.7687 44.8969 45.865 44.8643L45.914 44.8476C46.0758 44.7927 46.2091 44.6758 46.2847 44.5226C46.3602 44.3694 46.3719 44.1924 46.317 44.0307L42.5003 32.7738ZM20.707 45.7495L18.5205 38.7115C18.4903 38.6144 18.4376 38.5258 18.3666 38.453C18.2956 38.3802 18.2084 38.3252 18.1121 38.2925C18.0158 38.2599 17.9131 38.2505 17.8125 38.2652C17.7119 38.2798 17.6161 38.3181 17.5331 38.3768L11.5167 42.6336L14.5098 33.806C16.93 36.1098 19.8991 37.7564 23.1351 38.5892L20.707 45.7495ZM9.68839 19.6001C9.68839 9.50306 17.9029 1.28858 27.9999 1.28858C38.0969 1.28858 46.3114 9.50306 46.3114 19.6001C46.3114 29.6971 38.0969 37.9116 27.9999 37.9116C17.9029 37.9116 9.68839 29.6971 9.68839 19.6001ZM38.4666 38.3768C38.3836 38.3181 38.2878 38.2798 38.1872 38.2652C38.0866 38.2505 37.9839 38.2599 37.8876 38.2925C37.7913 38.3252 37.7041 38.3802 37.6331 38.453C37.5621 38.5258 37.5094 38.6144 37.4792 38.7115L35.2926 45.7494L32.8646 38.5892C36.1005 37.7565 39.0697 36.1101 41.4899 33.8064L44.483 42.6338L38.4666 38.3768Z" fill="#A35D2E"/>
<ellipse opacity="0.08" cx="28.0001" cy="33.6" rx="22.4" ry="22.4" fill="#A35D2E"/>
</g>
<defs>
<clipPath id="clip0_80_2312">
<rect width="56" height="56" fill="white"/>
</clipPath>
</defs>
</svg>
